<svg xmlns="http://www.w3.org/2000/svg" viewBox="0 0 600 200" width="100%" height="200" preserveAspectRatio="xMidYMax slice">
  <!-- Wave 1 (back, lighter) -->
  <path d="M0,100 Q75,60 150,100 Q225,140 300,100 Q375,60 450,100 Q525,140 600,100 L600,200 L0,200 Z" fill="#3480c4" opacity="0.85"/>

  <!-- Wave 2 (front, darker) -->
  <path d="M0,130 Q80,160 160,130 Q240,100 320,130 Q400,160 480,130 Q560,100 600,130 L600,200 L0,200 Z" fill="#1d72b5" opacity="0.95"/>

  <!-- Island -->
  <ellipse cx="480" cy="178" rx="85" ry="20" fill="#1964a1"/>

  <!-- Palm tree -->
  <g transform="translate(100, 50)">
    <rect x="30" y="30" width="8" height="78" rx="4" fill="#1964a1" transform="rotate(8,34,70)"/>
    <path d="M34,30 Q10,2 0,15 Q22,18 34,30Z" fill="#1964a1"/>
    <path d="M34,30 Q52,0 62,12 Q44,16 34,30Z" fill="#1964a1"/>
    <path d="M34,30 Q18,8 26,10 Q32,16 34,30Z" fill="#1964a1"/>
    <path d="M34,30 Q56,14 52,20 Q44,22 34,30Z" fill="#1964a1"/>
    <path d="M34,30 Q2,24 6,28 Q18,28 34,30Z" fill="#1964a1"/>
    <path d="M34,30 Q62,24 60,28 Q48,29 34,30Z" fill="#1964a1"/>
  </g>
</svg>
